<svg width="121" height="36" viewBox="0 0 121 36" fill="none" xmlns="http://www.w3.org/2000/svg">
<path d="M14.1134 0.00623372V0C14.0751 0 14.0379 0.00245573 14.0002 0.00245573C13.9624 0.00245573 13.9249 0 13.8866 0V0.00623372C10.1837 0.0655483 6.6524 1.58662 4.05452 4.24129C1.45665 6.89597 0.000417605 10.4715 0 14.1964C0 24.6583 12.2121 34.5893 14.0002 36C15.7882 34.5894 28 24.6586 28 14.1964C27.9996 10.4715 26.5434 6.89597 23.9455 4.24129C21.3476 1.58662 17.8163 0.0655483 14.1134 0.00623372ZM21.4852 10.08L18.6325 12.7647L21.2026 21.402L19.7631 22.85C19.6872 22.926 19.5845 22.9687 19.4774 22.9687C19.3703 22.9687 19.2676 22.926 19.1917 22.85L15.3585 15.8451L11.8343 19.3412L12.3967 22.0969L11.4987 22.9992C11.4705 23.0277 11.4369 23.0504 11.4 23.0659C11.3631 23.0814 11.3234 23.0894 11.2834 23.0894C11.2434 23.0895 11.2038 23.0816 11.1668 23.0662C11.1298 23.0509 11.0962 23.0283 11.0679 22.9999L5.99119 17.8936C5.96284 17.8651 5.94035 17.8313 5.92501 17.7941C5.90967 17.7569 5.90177 17.717 5.90177 17.6767C5.90177 17.6364 5.90967 17.5965 5.92501 17.5593C5.94035 17.5221 5.96284 17.4883 5.99119 17.4599L6.88878 16.557L9.57797 17.1092L13.0556 13.5504L6.14011 9.72196C6.06432 9.64568 6.02169 9.54229 6.02156 9.43445C6.02144 9.32661 6.06384 9.22312 6.13945 9.14668L7.57978 7.6987L16.1092 10.2675L18.7977 7.37673C19.5833 6.58658 20.8209 6.55107 21.563 7.29824C22.3054 8.04438 22.2708 9.29024 21.4852 10.08Z" fill="#FB5B32"/>
<path d="M36.125 26.5V9.03906H43.0039C44.3242 9.03906 45.4492 9.27344 46.3789 9.74219C47.3164 10.2109 48.0312 10.875 48.5234 11.7344C49.0234 12.5859 49.2734 13.5898 49.2734 14.7461C49.2734 15.9023 49.0234 16.8984 48.5234 17.7344C48.0234 18.5703 47.2969 19.2109 46.3438 19.6562C45.3984 20.0938 44.2539 20.3125 42.9102 20.3125H38.3047V17.3477H42.3125C43.0234 17.3477 43.6094 17.25 44.0703 17.0547C44.5391 16.8594 44.8867 16.5703 45.1133 16.1875C45.3477 15.8047 45.4648 15.3242 45.4648 14.7461C45.4648 14.1602 45.3477 13.6719 45.1133 13.2812C44.8867 12.8828 44.5391 12.582 44.0703 12.3789C43.6016 12.168 43.0117 12.0625 42.3008 12.0625H39.8047V26.5H36.125ZM45.8164 26.5L41.5625 18.5547H45.5469L49.8945 26.5H45.8164ZM58.4848 26.7344C56.938 26.7344 55.5473 26.3828 54.313 25.6797C53.0786 24.9766 52.102 23.957 51.3833 22.6211C50.6645 21.2852 50.3052 19.6719 50.3052 17.7812C50.3052 15.875 50.6645 14.2539 51.3833 12.918C52.102 11.5742 53.0786 10.5547 54.313 9.85938C55.5473 9.15625 56.938 8.80469 58.4848 8.80469C60.0317 8.80469 61.4223 9.15625 62.6567 9.85938C63.8911 10.5547 64.8638 11.5742 65.5747 12.918C66.2934 14.2539 66.6528 15.875 66.6528 17.7812C66.6528 19.6797 66.2934 21.2969 65.5747 22.6328C64.8638 23.9688 63.8911 24.9883 62.6567 25.6914C61.4223 26.3867 60.0317 26.7344 58.4848 26.7344ZM58.4848 23.4766C59.3833 23.4766 60.1645 23.2578 60.8286 22.8203C61.4927 22.3828 62.0044 21.7422 62.3638 20.8984C62.7309 20.0469 62.9145 19.0078 62.9145 17.7812C62.9145 16.5469 62.7309 15.5039 62.3638 14.6523C62.0044 13.8008 61.4927 13.1562 60.8286 12.7188C60.1645 12.2812 59.3833 12.0625 58.4848 12.0625C57.5942 12.0625 56.8169 12.2812 56.1528 12.7188C55.4888 13.1562 54.9692 13.8008 54.5942 14.6523C54.227 15.5039 54.0434 16.5469 54.0434 17.7812C54.0434 19.0078 54.227 20.0469 54.5942 20.8984C54.9692 21.7422 55.4888 22.3828 56.1528 22.8203C56.8169 23.2578 57.5942 23.4766 58.4848 23.4766ZM70.2275 26.5H66.2783L72.3017 9.03906H77.0595L83.0713 26.5H79.1338L74.7509 13.0234H74.6103L70.2275 26.5ZM69.9931 19.6328H79.333V22.5156H69.9931V19.6328ZM84.8647 9.03906L89.0717 22.3047H89.2358L93.4663 9.03906H97.5444L91.5327 26.5H86.7748L80.7514 9.03906H84.8647ZM102.057 9.03906V26.5H98.3769V9.03906H102.057ZM111.69 26.7344C110.143 26.7344 108.752 26.3828 107.518 25.6797C106.284 24.9766 105.307 23.957 104.588 22.6211C103.87 21.2852 103.51 19.6719 103.51 17.7812C103.51 15.875 103.87 14.2539 104.588 12.918C105.307 11.5742 106.284 10.5547 107.518 9.85938C108.752 9.15625 110.143 8.80469 111.69 8.80469C113.237 8.80469 114.627 9.15625 115.862 9.85938C117.096 10.5547 118.069 11.5742 118.78 12.918C119.498 14.2539 119.858 15.875 119.858 17.7812C119.858 19.6797 119.498 21.2969 118.78 22.6328C118.069 23.9688 117.096 24.9883 115.862 25.6914C114.627 26.3867 113.237 26.7344 111.69 26.7344ZM111.69 23.4766C112.588 23.4766 113.37 23.2578 114.034 22.8203C114.698 22.3828 115.209 21.7422 115.569 20.8984C115.936 20.0469 116.12 19.0078 116.12 17.7812C116.12 16.5469 115.936 15.5039 115.569 14.6523C115.209 13.8008 114.698 13.1562 114.034 12.7188C113.37 12.2812 112.588 12.0625 111.69 12.0625C110.799 12.0625 110.022 12.2812 109.358 12.7188C108.694 13.1562 108.174 13.8008 107.799 14.6523C107.432 15.5039 107.248 16.5469 107.248 17.7812C107.248 19.0078 107.432 20.0469 107.799 20.8984C108.174 21.7422 108.694 22.3828 109.358 22.8203C110.022 23.2578 110.799 23.4766 111.69 23.4766Z" fill="white"/>
</svg>
