<svg width="18" height="17" viewBox="0 0 18 17" fill="none" xmlns="http://www.w3.org/2000/svg">
<path d="M16.875 7.23047C17.5078 7.37109 18 7.93359 18 8.63672V15.8438C18 16.0195 17.8594 16.125 17.7188 16.125H17.1562C16.9805 16.125 16.875 16.0195 16.875 15.8438V13.875H1.125V15.8438C1.125 16.0195 0.984375 16.125 0.84375 16.125H0.28125C0.105469 16.125 0 16.0195 0 15.8438V8.63672C0 7.93359 0.457031 7.37109 1.125 7.23047V2.0625C1.125 1.14844 1.86328 0.375 2.8125 0.375H15.1875C16.1016 0.375 16.875 1.14844 16.875 2.0625V7.23047ZM2.25 6V7.125H8.4375V6C8.4375 5.40234 7.91016 4.875 7.3125 4.875H3.375C2.74219 4.875 2.25 5.40234 2.25 6ZM15.75 7.125V6C15.75 5.40234 15.2227 4.875 14.625 4.875H10.6875C10.0547 4.875 9.5625 5.40234 9.5625 6V7.125H15.75ZM2.8125 1.5C2.49609 1.5 2.25 1.78125 2.25 2.0625V4.06641C2.56641 3.89062 2.95312 3.78516 3.375 3.75H7.3125C7.98047 3.75 8.57812 4.06641 9 4.52344C9.38672 4.06641 9.98438 3.75 10.6875 3.75H14.625C15.0117 3.78516 15.3984 3.89062 15.75 4.06641V2.0625C15.75 1.78125 15.4688 1.5 15.1875 1.5H2.8125ZM1.125 12.75H16.875V8.63672C16.8398 8.42578 16.6992 8.28516 16.4883 8.25H1.47656C1.26562 8.28516 1.125 8.42578 1.125 8.63672V12.75Z" fill="#696969"/>
</svg>
