<svg width="19" height="19" viewBox="0 0 19 19" fill="none" xmlns="http://www.w3.org/2000/svg">
<path d="M15.625 1.375C17.4531 1.375 19 2.92188 19 4.75C19 6.22656 16.75 12.625 16.75 12.625V17.125C16.75 17.7578 16.2227 18.25 15.625 18.25H4.375C3.74219 18.25 3.25 17.7578 3.25 17.125V12.625C3.25 12.625 1 6.22656 1 4.75C0.964844 4.75 1 4.75 1 4.75C1 2.88672 2.47656 1.41016 4.33984 1.41016C5.11328 1.41016 5.81641 1.65625 6.37891 2.07812C7.22266 0.988281 8.52344 0.25 10 0.25C11.4766 0.25 12.7422 0.988281 13.5859 2.07812C14.1484 1.65625 14.8516 1.41016 15.625 1.375ZM15.625 17.125V13.75H4.375V17.125H15.625ZM15.625 12.625C15.625 12.625 17.875 5.55859 17.875 4.75C17.8398 3.51953 16.8555 2.53516 15.625 2.5C15.0977 2.53516 14.6406 2.71094 14.2539 2.99219L13.3398 3.66016L12.6719 2.74609C12.0391 1.90234 11.0547 1.375 10 1.375C8.91016 1.375 7.92578 1.90234 7.29297 2.74609L6.625 3.66016L5.71094 2.99219C5.32422 2.71094 4.86719 2.53516 4.375 2.5C3.10938 2.53516 2.125 3.51953 2.125 4.75C2.125 5.55859 4.375 12.625 4.375 12.625H5.92188L5.46484 7.35156V7.31641C5.46484 7.17578 5.60547 7.03516 5.74609 7.03516L6.30859 7C6.48438 7 6.58984 7.10547 6.58984 7.24609L7.04688 12.625H9.40234V7.28125C9.40234 7.14062 9.50781 7 9.68359 7H10.2461C10.3867 7 10.5273 7.14062 10.5273 7.28125V12.625H12.918L13.375 7.24609C13.375 7.10547 13.4805 7 13.6211 7H13.6562L14.2188 7.03516C14.3594 7.03516 14.5 7.17578 14.5 7.31641V7.35156L14.043 12.625H15.625Z" fill="#696969"/>
</svg>
