<svg width="18" height="19" viewBox="0 0 18 19" fill="none" xmlns="http://www.w3.org/2000/svg">
<path d="M17.7188 9.25C17.8594 9.25 18 9.39062 18 9.53125V10.0938C18 10.2695 17.8594 10.375 17.7188 10.375H16.875V13.75C16.875 15.2266 15.9258 16.457 14.625 16.9492V17.9688C14.625 18.1445 14.4844 18.25 14.3438 18.25H13.7812C13.6055 18.25 13.5 18.1445 13.5 17.9688V17.125H4.5V17.9688C4.5 18.1445 4.35938 18.25 4.21875 18.25H3.65625C3.48047 18.25 3.375 18.1445 3.375 17.9688V16.9492C2.03906 16.457 1.125 15.2266 1.125 13.75V10.375H0.28125C0.105469 10.375 0 10.2695 0 10.0938V9.53125C0 9.39062 0.105469 9.25 0.28125 9.25H1.125V2.42969C1.125 1.23438 2.07422 0.285156 3.26953 0.285156C3.86719 0.285156 4.39453 0.496094 4.78125 0.882812L5.66016 1.79688C6.04688 1.55078 6.50391 1.41016 7.03125 1.375C7.73438 1.375 8.36719 1.69141 8.82422 2.18359L9.24609 1.76172C9.28125 1.72656 9.35156 1.69141 9.42188 1.69141C9.49219 1.69141 9.5625 1.72656 9.63281 1.76172L10.0195 2.14844C10.0898 2.21875 10.125 2.28906 10.125 2.35938C10.125 2.42969 10.0898 2.5 10.0195 2.57031L5.66016 6.92969C5.58984 7 5.51953 7 5.44922 7C5.37891 7 5.30859 7 5.23828 6.92969L4.85156 6.54297C4.81641 6.47266 4.78125 6.40234 4.78125 6.33203C4.78125 6.26172 4.81641 6.19141 4.85156 6.12109L5.27344 5.73438C4.78125 5.27734 4.5 4.64453 4.5 3.90625C4.5 3.41406 4.64062 2.95703 4.88672 2.57031L3.97266 1.69141C3.79688 1.51562 3.55078 1.375 3.26953 1.375C2.70703 1.375 2.25 1.86719 2.25 2.42969V9.25H17.7188ZM8.01562 2.95703C7.76953 2.71094 7.41797 2.53516 7.03125 2.5C6.22266 2.5 5.625 3.13281 5.625 3.90625C5.625 4.32812 5.80078 4.67969 6.04688 4.92578L8.01562 2.95703ZM15.75 13.75V10.375H2.25V13.75C2.25 15.0156 3.23438 16 4.5 16H13.5C14.7305 16 15.7148 15.0156 15.75 13.75Z" fill="#696969"/>
</svg>
