<svg width="21" height="19" viewBox="0 0 21 19" fill="none" xmlns="http://www.w3.org/2000/svg">
<path d="M6.08203 3.66016L5.69531 3.27344C5.625 3.23828 5.58984 3.13281 5.58984 3.0625C5.58984 2.99219 5.625 2.92188 5.69531 2.85156C7.52344 1.19922 9.87891 0.25 12.375 0.25C14.8711 0.25 17.2266 1.19922 19.0195 2.85156C19.0898 2.92188 19.125 2.99219 19.125 3.0625C19.125 3.13281 19.0898 3.23828 19.0195 3.27344L18.6328 3.66016C18.5625 3.73047 18.4922 3.76562 18.4219 3.76562C18.3516 3.76562 18.2812 3.73047 18.2109 3.66016C16.6289 2.18359 14.5547 1.375 12.375 1.375C10.1602 1.375 8.08594 2.18359 6.50391 3.66016C6.43359 3.73047 6.36328 3.76562 6.29297 3.76562C6.22266 3.76562 6.15234 3.73047 6.08203 3.66016ZM12.375 4.1875V4.22266C13.9922 4.22266 15.4688 4.82031 16.5938 5.80469C16.6641 5.875 16.6992 5.94531 16.6992 6.01562C16.6992 6.08594 16.6641 6.15625 16.5938 6.22656L16.207 6.61328C16.1367 6.68359 16.0664 6.71875 15.9961 6.71875C15.9258 6.71875 15.8555 6.68359 15.7852 6.61328C14.8711 5.80469 13.6758 5.34766 12.3398 5.34766C11.0391 5.34766 9.84375 5.80469 8.92969 6.61328C8.85938 6.68359 8.78906 6.71875 8.71875 6.71875C8.64844 6.71875 8.57812 6.68359 8.54297 6.61328L8.12109 6.22656C8.05078 6.15625 8.05078 6.08594 8.05078 6.01562C8.05078 5.94531 8.08594 5.875 8.12109 5.80469C9.24609 4.82031 10.7227 4.1875 12.3398 4.1875C12.3398 4.1875 12.3398 4.1875 12.375 4.1875ZM18.5625 11.5C19.4766 11.5 20.25 12.2734 20.25 13.1875V16.5625C20.25 17.5117 19.4766 18.25 18.5625 18.25H1.6875C0.738281 18.25 0 17.5117 0 16.5625V13.1875C0 12.2734 0.738281 11.5 1.6875 11.5H11.8125V8.40625C11.8125 8.26562 11.918 8.125 12.0938 8.125H12.6562C12.7969 8.125 12.9375 8.26562 12.9375 8.40625V11.5H18.5625ZM19.125 16.5625V13.1875C19.125 12.9062 18.8438 12.625 18.5625 12.625H1.6875C1.37109 12.625 1.125 12.9062 1.125 13.1875V16.5625C1.125 16.8789 1.37109 17.125 1.6875 17.125H18.5625C18.8438 17.125 19.125 16.8789 19.125 16.5625ZM6.46875 14.0312C6.92578 14.0312 7.3125 14.418 7.3125 14.875C7.3125 15.3672 6.92578 15.7188 6.46875 15.7188C5.97656 15.7188 5.625 15.3672 5.625 14.875C5.625 14.418 5.97656 14.0312 6.46875 14.0312ZM3.65625 14.0312C4.11328 14.0312 4.5 14.418 4.5 14.875C4.5 15.3672 4.11328 15.7188 3.65625 15.7188C3.16406 15.7188 2.8125 15.3672 2.8125 14.875C2.8125 14.418 3.16406 14.0312 3.65625 14.0312Z" fill="#696969"/>
</svg>
