<svg width="28" height="36" viewBox="0 0 28 36" fill="none" xmlns="http://www.w3.org/2000/svg">
<path d="M14.1134 0.00623372V0C14.0751 0 14.0379 0.00245573 14.0002 0.00245573C13.9624 0.00245573 13.9249 0 13.8866 0V0.00623372C10.1837 0.0655483 6.6524 1.58662 4.05452 4.24129C1.45665 6.89597 0.000417605 10.4715 0 14.1964C0 24.6583 12.2121 34.5893 14.0002 36C15.7882 34.5894 28 24.6586 28 14.1964C27.9996 10.4715 26.5434 6.89597 23.9455 4.24129C21.3476 1.58662 17.8163 0.0655483 14.1134 0.00623372ZM21.4852 10.08L18.6325 12.7647L21.2026 21.402L19.7631 22.85C19.6872 22.926 19.5845 22.9687 19.4774 22.9687C19.3703 22.9687 19.2676 22.926 19.1917 22.85L15.3585 15.8451L11.8343 19.3412L12.3967 22.0969L11.4987 22.9992C11.4705 23.0277 11.4369 23.0504 11.4 23.0659C11.3631 23.0814 11.3234 23.0894 11.2834 23.0894C11.2434 23.0895 11.2038 23.0816 11.1668 23.0662C11.1298 23.0509 11.0962 23.0283 11.0679 22.9999L5.99119 17.8936C5.96284 17.8651 5.94035 17.8313 5.92501 17.7941C5.90967 17.7569 5.90177 17.717 5.90177 17.6767C5.90177 17.6364 5.90967 17.5965 5.92501 17.5593C5.94035 17.5221 5.96284 17.4883 5.99119 17.4599L6.88878 16.557L9.57797 17.1092L13.0556 13.5504L6.14011 9.72196C6.06432 9.64568 6.02169 9.54229 6.02156 9.43445C6.02144 9.32661 6.06384 9.22312 6.13945 9.14668L7.57978 7.6987L16.1092 10.2675L18.7977 7.37673C19.5833 6.58658 20.8209 6.55107 21.563 7.29824C22.3054 8.04438 22.2708 9.29024 21.4852 10.08Z" fill="#FB5B32"/>
</svg>
