<svg width="41" height="45" viewBox="0 0 41 45" fill="none" xmlns="http://www.w3.org/2000/svg">
<path d="M17.7011 14.9879C17.7011 12.1377 15.3867 9.82324 12.55 9.82324C9.70675 9.82324 7.39844 12.1438 7.39844 14.9879C7.39844 17.8382 9.71284 20.1518 12.55 20.1518C15.3867 20.1518 17.7011 17.8382 17.7011 14.9879ZM9.38286 14.9879C9.38286 13.2413 10.8012 11.8191 12.5435 11.8191C14.2854 11.8191 15.7041 13.2413 15.7041 14.9879C15.7041 16.7341 14.2854 18.156 12.5435 18.156C10.8012 18.156 9.38286 16.7341 9.38286 14.9879Z" fill="#151515"/>
<path d="M12.0767 34.229H7.82117V28.0857C7.82117 27.6364 7.4604 27.2747 7.01258 27.2747C6.56437 27.2747 6.2036 27.6364 6.2036 28.0857V34.229H4.39329C4.3127 34.229 4.22526 34.1665 4.22526 34.0606V28.0605C4.22526 25.3978 6.39026 23.2266 9.0468 23.2266H15.9527C16.9176 23.2266 17.776 23.4953 18.5785 24.0437C18.7526 24.1622 18.9457 24.2183 19.1385 24.2183C19.4559 24.2183 19.7669 24.0689 19.9596 23.7823C20.271 23.3269 20.1527 22.7091 19.6984 22.3974C18.572 21.6241 17.3095 21.2312 15.9527 21.2312H9.0468C5.28894 21.2312 2.23438 24.2937 2.23438 28.0605V34.0606C2.23438 35.2519 3.2053 36.2252 4.39329 36.2252H12.0767C12.6245 36.2252 13.0727 35.7759 13.0727 35.2267C13.0727 34.678 12.6245 34.229 12.0767 34.229Z" fill="#151515"/>
<path d="M30.1437 26.0585C32.7565 26.0585 34.8842 23.9251 34.8842 21.3058C34.8842 18.6861 32.7565 16.5535 30.1437 16.5535C27.5305 16.5535 25.4023 18.6861 25.4023 21.3058C25.4023 23.9251 27.5305 26.0585 30.1437 26.0585ZM30.1437 18.5489C31.6616 18.5489 32.8933 19.7841 32.8933 21.3058C32.8933 22.8275 31.6616 24.0627 30.1437 24.0627C28.6257 24.0627 27.3932 22.8275 27.3932 21.3058C27.3932 19.7841 28.6257 18.5489 30.1437 18.5489Z" fill="#151515"/>
<path d="M37.5961 28.8712C36.4389 27.6863 34.8901 27.0381 33.2288 27.0381H27.0071C26.9573 27.0381 26.9136 27.0381 26.8638 27.0381C26.7087 27.0316 26.5278 27.0316 26.3229 27.0564C25.7751 27.1189 25.3896 27.6181 25.4519 28.1665C25.5139 28.6718 25.9431 29.0461 26.4411 29.0461C26.4783 29.0461 26.5217 29.0461 26.5593 29.0396C26.6213 29.0335 26.7148 29.0335 26.8201 29.0335H33.2227C34.3423 29.0335 35.3877 29.4703 36.1651 30.2683C36.9429 31.0671 37.3721 32.1395 37.3721 33.2874V38.707C37.3721 38.7386 37.36 38.7573 37.3223 38.7573H36.1651V33.3125C36.1651 32.8632 35.8044 32.5015 35.3565 32.5015C34.9087 32.5015 34.548 32.8632 34.548 33.3125V38.7573H30.0746C29.5268 38.7573 29.0786 39.2062 29.0786 39.755C29.0786 40.3042 29.5268 40.7527 30.0746 40.7527H37.3223C38.4487 40.7527 39.3634 39.8362 39.3634 38.707V33.2874C39.3695 31.6094 38.7411 30.0438 37.5961 28.8712Z" fill="#151515"/>
<path d="M16.6797 28.8711C16.6797 31.0792 18.4714 32.8693 20.6672 32.8693C22.8698 32.8693 24.6554 31.0731 24.6554 28.8711C24.6554 26.6634 22.8637 24.8738 20.6672 24.8738C18.4653 24.8738 16.6797 26.6695 16.6797 28.8711ZM20.6672 26.8696C21.7685 26.8696 22.6649 27.7675 22.6649 28.8711C22.6649 29.9752 21.7685 30.8738 20.6672 30.8738C19.5662 30.8738 18.6706 29.9752 18.6706 28.8711C18.6706 27.7675 19.5662 26.8696 20.6672 26.8696Z" fill="#151515"/>
<path d="M26.7411 35.158C25.7767 34.1663 24.4826 33.624 23.1015 33.624H18.1306C15.2684 33.624 12.9414 35.9564 12.9414 38.8253V43.1542C12.9414 44.1706 13.7694 44.9999 14.7833 44.9999H26.3929C27.3942 44.9999 28.2093 44.1706 28.2093 43.1542V38.8253C28.2222 37.4346 27.693 36.1313 26.7411 35.158ZM18.1366 35.6195H23.1076C23.9477 35.6195 24.7381 35.9503 25.3228 36.5551C25.9074 37.1603 26.231 37.9651 26.231 38.8253V43.0044H25.6337V38.8508C25.6337 38.4015 25.273 38.0398 24.8248 38.0398C24.3769 38.0398 24.0162 38.4015 24.0162 38.8508V43.0044H17.4645V38.8508C17.4645 38.4015 17.1038 38.0398 16.6559 38.0398C16.2081 38.0398 15.847 38.4015 15.847 38.8508V43.0044H14.9388V38.8253C14.9388 37.0543 16.3697 35.6195 18.1366 35.6195Z" fill="#151515"/>
<path d="M40.4107 11.0957L34.6118 8.2333V1.70276C34.6118 0.748482 33.8651 0 32.9132 0H28.8132C27.8613 0 27.115 0.748482 27.115 1.70276V4.54691L21.285 1.70276C20.6942 1.41579 20.0221 1.41579 19.4309 1.70276L0.592213 10.9521C0.0694959 11.2082 -0.148334 11.8442 0.106751 12.3682C0.293029 12.7425 0.666723 12.9609 1.05867 12.9609C1.21415 12.9609 1.37572 12.9231 1.5255 12.8545L20.3581 3.60521L27.6997 7.19137C27.7119 7.19785 27.7244 7.20395 27.7366 7.21004C27.7431 7.21004 27.7491 7.21614 27.7556 7.21614C27.7803 7.22872 27.8119 7.23482 27.8366 7.24777C27.8427 7.24777 27.8487 7.25387 27.8548 7.25387C27.8864 7.25997 27.9111 7.27255 27.9423 7.27864H27.9548C27.986 7.28474 28.0168 7.29084 28.0544 7.29084C28.0913 7.29732 28.1228 7.29732 28.1601 7.29732C28.1909 7.29732 28.2285 7.29732 28.2593 7.29084H28.2844C28.3091 7.29084 28.3407 7.28474 28.3654 7.27864H28.3836C28.4152 7.27255 28.4399 7.26607 28.465 7.25997C28.4771 7.25387 28.4897 7.25387 28.4958 7.24777C28.5148 7.24091 28.5334 7.23482 28.5517 7.22872C28.5642 7.22262 28.5707 7.22262 28.5832 7.21614C28.6079 7.20395 28.633 7.19137 28.6577 7.17879C28.6638 7.17232 28.6699 7.17232 28.6828 7.16622C28.7014 7.15402 28.7262 7.14145 28.7448 7.12925C28.7512 7.12239 28.7573 7.12239 28.7634 7.11629C28.8132 7.07933 28.863 7.0416 28.9063 6.99777C28.9124 6.99167 28.9124 6.99167 28.9193 6.98558C28.9375 6.9669 28.9561 6.94175 28.9752 6.92308C28.9752 6.91698 28.9812 6.91698 28.9812 6.91088C28.9999 6.88573 29.0185 6.86096 29.0375 6.83542C29.0375 6.82933 29.0436 6.82933 29.0436 6.82323C29.0557 6.80455 29.0683 6.77978 29.0805 6.76073C29.0865 6.74853 29.0934 6.74243 29.0995 6.72986C29.1056 6.72376 29.1056 6.71728 29.112 6.7108C29.1181 6.70471 29.1181 6.69861 29.1181 6.69251C29.1242 6.67384 29.1367 6.65478 29.1428 6.63001C29.1493 6.61781 29.1557 6.60524 29.1557 6.59228C29.1618 6.57399 29.1679 6.55531 29.174 6.53626C29.1801 6.51758 29.1801 6.50539 29.1865 6.48633C29.1926 6.46766 29.1926 6.45547 29.1987 6.43679C29.2055 6.41774 29.2055 6.39906 29.2055 6.38077C29.2055 6.36781 29.2116 6.34914 29.2116 6.33694C29.2116 6.31179 29.2116 6.29312 29.2177 6.26834C29.2177 6.26225 29.2177 6.25615 29.2177 6.24319V2.11435H32.4901V8.9128C32.4901 8.93186 32.4901 8.95663 32.4962 8.97492C32.4962 8.9875 32.4962 9.00655 32.5026 9.01875C32.5026 9.03742 32.5087 9.05648 32.5087 9.07477C32.5087 9.09344 32.5152 9.1125 32.5213 9.12508C32.5277 9.13727 32.5277 9.15595 32.5338 9.16852C32.5399 9.1872 32.546 9.20587 32.5524 9.22493C32.5585 9.23712 32.5585 9.2497 32.5646 9.26189C32.5714 9.28095 32.5775 9.29962 32.5897 9.31791C32.5962 9.33049 32.6022 9.34345 32.6083 9.35564C32.6144 9.37432 32.6269 9.39261 32.6334 9.40557C32.6395 9.41814 32.652 9.43644 32.6581 9.44901C32.6642 9.46197 32.6768 9.48026 32.6828 9.49284C32.6958 9.51113 32.7079 9.52409 32.7205 9.54276C32.7266 9.55496 32.7387 9.56753 32.7456 9.57401C32.7577 9.59269 32.7703 9.60488 32.7885 9.62356C32.795 9.63651 32.8075 9.64261 32.814 9.64871C32.8262 9.66129 32.8448 9.67348 32.8569 9.69254C32.8699 9.70511 32.882 9.71121 32.8885 9.7234C32.9007 9.73598 32.9197 9.74208 32.9322 9.75504C32.9444 9.76723 32.963 9.77333 32.9752 9.7859C32.9881 9.792 33.0003 9.7981 33.0128 9.81106C33.0314 9.82325 33.0501 9.82973 33.0687 9.84193C33.0748 9.84193 33.0748 9.84802 33.0812 9.84802L39.4705 13.0047C39.6203 13.0794 39.7819 13.1163 39.9374 13.1163C40.3293 13.1163 40.703 12.8984 40.8893 12.5237C41.1505 11.9936 40.933 11.3576 40.4107 11.0957Z" fill="#151515"/>
</svg>
