<svg width="45" height="45" viewBox="0 0 45 45" fill="none" xmlns="http://www.w3.org/2000/svg">
<g clip-path="url(#clip0_343_595)">
<path d="M35.897 27.8499C35.9381 27.8121 35.9787 27.7735 36.0188 27.7341C36.9914 26.7776 37.527 25.4997 37.527 24.1357V21.5625C37.527 18.9778 35.4242 16.875 32.8395 16.875H30.1758C28.6638 16.875 27.4337 18.1052 27.4337 19.6172V24.0682C27.4337 25.3711 27.9244 26.5681 28.7287 27.476C28.0862 27.6755 27.5024 28.0463 27.045 28.5578L23.6058 31.9038C23.5879 31.9213 23.5706 31.9395 23.554 31.9584C23.3398 32.2034 23.0302 32.3438 22.7047 32.3438C22.3792 32.3438 22.0698 32.2034 21.8554 31.9584C21.83 31.9294 21.8028 31.902 21.7741 31.8763L18.0686 28.5693C17.5829 28.039 16.9139 27.7162 16.2002 27.6638C16.6629 26.7218 16.9228 25.6632 16.9229 24.5448L16.9231 22.3676C16.9232 21.0522 16.411 19.8156 15.4809 18.8854C14.5508 17.9552 13.3143 17.4429 11.9988 17.4429H11.8956C9.10178 17.4429 6.82891 19.7068 6.82891 22.4896C6.82891 24.8146 5.78763 26.9812 3.97197 28.4336L3.18766 29.0611C2.69969 29.4516 2.518 30.0848 2.72482 30.6746C2.93172 31.2643 3.46919 31.6454 4.09413 31.6454H6.03288C5.88653 31.9739 5.75913 32.3168 5.65094 32.673L3.1301 40.9725C2.81275 42.0172 2.99603 43.1794 3.6086 44.0055C4.07744 44.6375 4.75788 45 5.47591 45H17.2483C17.9661 45 18.6467 44.6375 19.1153 44.0054C19.7278 43.1793 19.9112 42.0172 19.5938 40.9724L17.3174 33.4776C17.1669 32.9821 16.6432 32.7026 16.1478 32.853C15.6525 33.0035 15.3727 33.5271 15.5233 34.0225L17.7997 41.5174C17.9656 42.0634 17.8234 42.5995 17.609 42.8888C17.5437 42.977 17.4097 43.1251 17.2482 43.1251H5.47591C5.31438 43.1251 5.1805 42.9771 5.11506 42.8888C4.90066 42.5996 4.75853 42.0634 4.92447 41.5174L7.44532 33.2179C7.61997 32.6428 7.8565 32.1157 8.15041 31.6454H9.82169C11.7956 31.6454 13.5839 30.836 14.8722 29.5313H15.9946C16.2649 29.5313 16.5221 29.6481 16.7001 29.8515C16.7255 29.8806 16.7527 29.9079 16.7814 29.9336L20.4865 33.2403C21.0549 33.863 21.8596 34.2188 22.7047 34.2188C23.5572 34.2188 24.3687 33.8567 24.9378 33.2239L28.3773 29.8774C28.3953 29.8598 28.4126 29.8417 28.4291 29.8228C28.7853 29.4158 29.2996 29.1824 29.8402 29.1824H32.4806C32.4808 29.1824 32.4815 29.1824 32.482 29.1824H33.9543C34.4997 29.1824 34.999 29.4076 35.3599 29.8165C35.7209 30.2255 35.8824 30.7487 35.8139 31.2979L35.2595 36.0615L32.6541 37.3643L30.1999 36.1372L29.8465 33.1703C29.7853 32.6562 29.3186 32.2889 28.8048 32.3503C28.2906 32.4115 27.9235 32.8779 27.9847 33.3921L29.1717 43.3576C29.2888 44.2939 30.0887 45 31.0323 45H34.4376C35.3813 45 36.1812 44.2939 36.2989 43.3496L37.6753 31.5225C37.8087 30.4557 37.4771 29.3816 36.7655 28.5757C36.5119 28.2882 36.2185 28.0446 35.897 27.8499ZM15.048 24.5446C15.0477 27.4261 12.7031 29.7703 9.82169 29.7703H9.64985C10.944 28.7367 11.9682 27.3243 12.5528 25.6574C12.7242 25.1688 12.467 24.6338 11.9784 24.4624C11.4903 24.2913 10.9549 24.5482 10.7835 25.0367C9.91075 27.5248 7.81713 29.2954 5.39641 29.6881C7.50288 27.8825 8.7041 25.2775 8.7041 22.4894C8.7041 20.7406 10.1358 19.3177 11.8958 19.3177H11.9989C12.8134 19.3177 13.5792 19.635 14.1552 20.211C14.7312 20.787 15.0483 21.5528 15.0482 22.3672L15.048 24.5446ZM35.6521 24.1357C35.652 24.993 35.3153 25.7961 34.7041 26.3972C34.0929 26.9982 33.2822 27.3197 32.4257 27.3069C30.7069 27.2782 29.3087 25.8253 29.3087 24.0682V23.8072C30.3585 24.4444 31.6168 24.7915 32.9002 24.7915C33.4179 24.7915 33.8377 24.3718 33.8377 23.854C33.8377 23.3362 33.4179 22.9165 32.9002 22.9165C31.8457 22.9165 30.8225 22.6024 30.0193 22.032C29.5743 21.7161 29.3088 21.1901 29.3088 20.625V19.6172C29.3088 19.139 29.6977 18.75 30.1759 18.75H32.8396C34.3904 18.75 35.6521 20.0117 35.6521 21.5625V24.1357ZM34.4377 43.125L31.033 43.1304L30.4655 38.3662L32.235 39.251C32.4988 39.3829 32.8096 39.3829 33.0734 39.251L35.0006 38.2874L34.4377 43.125Z" fill="#141816"/>
<path d="M32.4518 0C30.2485 0 28.081 0.581344 26.1836 1.68112C24.7564 2.50837 23.5025 3.61397 22.5 4.92112C21.4975 3.61397 20.2435 2.50828 18.8164 1.68112C16.9189 0.581344 14.7514 0 12.5481 0C5.62903 0 0 5.646 0 12.5859C0 15.4398 1.04391 18.1835 2.93934 20.3114C3.12459 20.5194 3.38156 20.6254 3.63975 20.6254C3.86156 20.6254 4.08422 20.5471 4.26291 20.3879C4.64953 20.0435 4.68375 19.4509 4.33931 19.0642C2.75016 17.2801 1.875 14.9794 1.875 12.5859C1.875 6.67987 6.66291 1.875 12.5482 1.875C16.3244 1.875 19.7442 3.816 21.6963 7.06716C21.8657 7.34944 22.1708 7.52212 22.5 7.52212C22.8292 7.52212 23.1342 7.34944 23.3037 7.06716C25.2557 3.816 28.6757 1.875 32.4519 1.875C38.3371 1.875 43.125 6.67987 43.125 12.5859C43.125 14.9793 42.2498 17.2799 40.6609 19.064C40.3165 19.4506 40.3507 20.0432 40.7374 20.3875C41.1241 20.732 41.7167 20.6977 42.061 20.311C43.9563 18.1832 45 15.4396 45 12.5859C45 5.646 39.371 0 32.4518 0Z" fill="#141816"/>
</g>
<defs>
<clipPath id="clip0_343_595">
<rect width="45" height="45" fill="white"/>
</clipPath>
</defs>
</svg>
