<svg width="45" height="45" viewBox="0 0 45 45" fill="none" xmlns="http://www.w3.org/2000/svg">
<path d="M21.3043 6.89526C20.553 6.89526 19.8468 7.18777 19.3157 7.7189C18.7843 8.24967 18.4917 8.95554 18.492 9.70639C18.492 11.2874 17.9208 12.7822 16.8779 13.9588C16.9449 13.6361 16.9803 13.302 16.9803 12.9597C16.9803 10.2471 14.7726 8.04025 12.0586 8.04025C9.3446 8.04025 7.13658 10.2471 7.13658 12.9597C7.13658 13.302 7.17196 13.6361 7.23894 13.9588C6.23592 12.8244 5.62517 11.3358 5.62517 9.70639C5.62517 8.15629 4.36349 6.89526 2.81259 6.89526C1.26168 6.89526 0 8.15629 0 9.70639C0 14.3845 2.68309 18.5947 6.88376 20.5914V29.6174C6.88376 29.6219 6.88307 29.6263 6.88307 29.6311V44.0984C6.88307 44.5835 7.27672 44.9766 7.76209 44.9766C8.24746 44.9766 8.64077 44.5835 8.64077 44.0984V30.5097H16.5928V40.5845C16.5928 41.0696 16.9865 41.4631 17.4718 41.4631C17.9572 41.4631 18.3508 41.0696 18.3508 40.5845V19.9834C19.1601 19.487 19.9086 18.8971 20.5812 18.2249C22.8614 15.9459 24.1169 12.9209 24.1169 9.70639C24.1169 8.15629 22.8552 6.89526 21.3043 6.89526ZM12.0586 9.79703C13.8032 9.79703 15.2226 11.2156 15.2226 12.9597C15.2226 14.7035 13.8032 16.1221 12.0586 16.1221C10.3136 16.1221 8.89427 14.7035 8.89427 12.9597C8.89427 11.2156 10.3136 9.79703 12.0586 9.79703ZM19.3384 16.9824C18.6576 17.6626 17.8861 18.2445 17.0449 18.7121C16.7659 18.8669 16.5928 19.1608 16.5928 19.4798V28.7526H8.64145V20.0219C8.64145 19.6676 8.42848 19.3479 8.10147 19.2113C4.24773 17.6021 1.75769 13.8712 1.75769 9.70639C1.75769 9.12515 2.2307 8.65239 2.81224 8.65239C3.39379 8.65239 3.86713 9.12549 3.86713 9.70639C3.86713 14.2207 7.54191 17.8933 12.0583 17.8933H12.0586C14.2429 17.8933 16.2988 17.0411 17.848 15.4931C19.3968 13.9454 20.2497 11.8903 20.2497 9.70639C20.2497 9.42487 20.3593 9.16016 20.5585 8.96104C20.7578 8.76191 21.0226 8.65239 21.3043 8.65239C21.8858 8.65239 22.3588 9.12515 22.3592 9.70639C22.3592 12.4516 21.2861 15.0354 19.3384 16.9824Z" fill="#141816"/>
<path d="M17.4728 43.2202C17.2406 43.2202 17.0149 43.3139 16.8514 43.4774C16.6879 43.6408 16.5938 43.8667 16.5938 44.0984C16.5938 44.3295 16.6879 44.5561 16.8514 44.7195C17.0149 44.8829 17.2416 44.977 17.4728 44.977C17.7039 44.977 17.9307 44.8829 18.0942 44.7195C18.2577 44.5561 18.3518 44.3295 18.3518 44.0984C18.3518 43.8674 18.2577 43.6408 18.0942 43.4774C17.9307 43.3139 17.7039 43.2202 17.4728 43.2202Z" fill="#141816"/>
<path d="M12.6251 34.0769C12.1397 34.0769 11.7461 34.4704 11.7461 34.9555V44.1215C11.7461 44.6066 12.1397 45.0001 12.6251 45.0001C13.1105 45.0001 13.5038 44.6066 13.5038 44.1215V34.9555C13.5038 34.4704 13.1105 34.0769 12.6251 34.0769Z" fill="#141816"/>
<path d="M42.1874 18.9153C41.4362 18.9153 40.7296 19.2078 40.1986 19.7386C39.6672 20.2697 39.3748 20.9756 39.3748 21.7264C39.3748 23.3074 38.8039 24.8022 37.7611 25.9788C37.8277 25.6561 37.8631 25.322 37.8631 24.9797C37.8631 22.2671 35.6554 20.0603 32.9414 20.0603C30.2274 20.0603 28.0194 22.2671 28.0194 24.9797C28.0194 25.322 28.0548 25.6561 28.1218 25.9788C27.1187 24.8445 26.508 23.3558 26.508 21.7264C26.508 20.1763 25.2463 18.9153 23.6954 18.9153C22.1445 18.9153 20.8828 20.1763 20.8828 21.7264C20.8828 22.7976 21.0243 23.8605 21.3036 24.8864C21.4307 25.3543 21.9133 25.631 22.3822 25.5033C22.8507 25.3759 23.1269 24.8932 22.9995 24.4253C22.7614 23.5498 22.6405 22.6417 22.6405 21.7264C22.6405 21.1452 23.1139 20.6721 23.6954 20.6721C24.2769 20.6724 24.7499 21.1452 24.7499 21.7264C24.7499 26.2408 28.4247 29.9133 32.9411 29.9133H32.9414C35.1257 29.9133 37.1816 29.0608 38.7308 27.5131C40.2796 25.9654 41.1325 23.9103 41.1325 21.7261C41.1325 21.4449 41.2421 21.1802 41.4413 20.9811C41.6406 20.7819 41.9054 20.6721 42.1871 20.6721C42.7686 20.6721 43.2416 21.1452 43.242 21.7264C43.2416 24.4716 42.1689 27.0555 40.2209 29.0024C39.5408 29.6826 38.7689 30.2645 37.9277 30.7318C37.6487 30.8869 37.4756 31.1808 37.4756 31.4998V40.7726H29.5243V32.0419C29.5243 31.6876 29.3113 31.3679 28.9843 31.2313C28.1269 30.8732 27.32 30.3991 26.5863 29.8226C26.2047 29.5226 25.6523 29.5888 25.3521 29.9703C25.0522 30.3514 25.1182 30.9038 25.4998 31.2038C26.2026 31.7562 26.9631 32.228 27.7666 32.6111V41.6374C27.7662 41.6419 27.7659 41.6463 27.7659 41.6511V44.0984C27.7659 44.5835 28.1592 44.9766 28.6446 44.9766C29.1299 44.9766 29.5236 44.5835 29.5236 44.0984V42.5294H37.4756V44.0984C37.4756 44.5835 37.8693 44.9766 38.3546 44.9766C38.84 44.9766 39.2333 44.5835 39.2333 44.0984V32.0034C40.043 31.507 40.7914 30.9168 41.464 30.2446C43.7438 27.966 44.9997 24.9406 44.9997 21.7261C44.9997 20.1763 43.738 18.9153 42.1874 18.9153ZM32.9414 21.817C34.6861 21.817 36.1054 23.2357 36.1054 24.9797C36.1054 26.7235 34.6861 28.1421 32.9414 28.1421C31.1968 28.1421 29.7774 26.7235 29.7774 24.9797C29.7774 23.2357 31.1968 21.817 32.9414 21.817Z" fill="#141816"/>
<path d="M24.4004 27.4724C24.1284 27.0703 23.5819 26.9649 23.18 27.2362C22.7777 27.5081 22.6719 28.0539 22.9437 28.456L22.9536 28.4707C23.123 28.7245 23.4015 28.8618 23.6856 28.8618C23.8529 28.8618 24.0226 28.8141 24.1724 28.7142C24.5763 28.445 24.6852 27.8998 24.4159 27.496L24.4004 27.4724Z" fill="#141816"/>
<path d="M39.3751 11.4032C39.8605 11.4032 40.2541 11.0101 40.2541 10.525V9.31167C40.2541 8.82655 39.8605 8.43311 39.3751 8.43311C38.8897 8.43311 38.4961 8.82655 38.4961 9.31167V10.525C38.4961 11.0101 38.8897 11.4032 39.3751 11.4032Z" fill="#141816"/>
<path d="M39.3751 17.2176C39.8605 17.2176 40.2541 16.8242 40.2541 16.3391V15.1258C40.2541 14.641 39.8605 14.2476 39.3751 14.2476C38.8897 14.2476 38.4961 14.641 38.4961 15.1258V16.3391C38.4961 16.8242 38.8897 17.2176 39.3751 17.2176Z" fill="#141816"/>
<path d="M41.6759 13.7038H42.8898C43.3752 13.7038 43.7685 13.3107 43.7685 12.8256C43.7685 12.3405 43.3752 11.947 42.8898 11.947H41.6759C41.1905 11.947 40.7969 12.3405 40.7969 12.8256C40.7969 13.3107 41.1905 13.7038 41.6759 13.7038Z" fill="#141816"/>
<path d="M35.8595 13.7038H37.0734C37.5588 13.7038 37.9524 13.3107 37.9524 12.8256C37.9524 12.3405 37.5588 11.947 37.0734 11.947H35.8595C35.3741 11.947 34.9805 12.3405 34.9805 12.8256C34.9805 13.3107 35.3741 13.7038 35.8595 13.7038Z" fill="#141816"/>
<path d="M30.2345 2.97009C30.7199 2.97009 31.1132 2.57664 31.1132 2.09152V0.878563C31.1132 0.393448 30.7199 0 30.2345 0C29.7491 0 29.3555 0.393448 29.3555 0.878563V2.09152C29.3555 2.57664 29.7488 2.97009 30.2345 2.97009Z" fill="#141816"/>
<path d="M30.2345 8.78464C30.7199 8.78464 31.1132 8.39119 31.1132 7.90607V6.69277C31.1132 6.20766 30.7199 5.81421 30.2345 5.81421C29.7491 5.81421 29.3555 6.20766 29.3555 6.69277V7.90607C29.3555 8.39119 29.7488 8.78464 30.2345 8.78464Z" fill="#141816"/>
<path d="M32.5349 5.2707H33.7489C34.2342 5.2707 34.6279 4.87725 34.6279 4.39214C34.6279 3.90702 34.2342 3.51392 33.7489 3.51392H32.5349C32.0496 3.51392 31.6562 3.90702 31.6562 4.39214C31.6562 4.87725 32.0496 5.2707 32.5349 5.2707Z" fill="#141816"/>
<path d="M26.7189 5.2707H27.9328C28.4182 5.2707 28.8118 4.87725 28.8118 4.39214C28.8118 3.90702 28.4182 3.51392 27.9328 3.51392H26.7189C26.2335 3.51392 25.8398 3.90702 25.8398 4.39214C25.8398 4.87725 26.2335 5.2707 26.7189 5.2707Z" fill="#141816"/>
</svg>
