<svg width="47" height="45" viewBox="0 0 47 45" fill="none" xmlns="http://www.w3.org/2000/svg">
<path d="M46.0831 23.0857H43.7677C43.4848 23.0857 43.2176 23.216 43.0437 23.4388L41.6474 25.2269C41.3354 25.6262 41.4068 26.202 41.8066 26.5136C41.9744 26.6443 42.1731 26.7073 42.3707 26.7073C42.6439 26.7073 42.9139 26.5863 43.095 26.3546L44.2159 24.9196H46.0831C46.5901 24.9196 47.001 24.5092 47.001 24.0028C47.001 23.4965 46.5901 23.0857 46.0831 23.0857Z" fill="#141816"/>
<path d="M38.6035 30.6134C38.2036 30.3022 37.627 30.3731 37.3151 30.7724L36.0242 32.4255H32.0052L28.7952 21.4413C29.7311 21.0857 30.3977 20.1808 30.3977 19.1229C30.3977 17.7556 29.2839 16.6429 27.9145 16.6429H27.3927L26.7276 14.3664C26.5852 13.8804 26.0753 13.6014 25.5891 13.7432C25.1025 13.885 24.8231 14.3939 24.9651 14.8799L25.4804 16.6429H24.991L21.5805 13.3923C21.6529 13.3468 21.725 13.2999 21.7953 13.2501C22.766 12.5639 23.4107 11.5415 23.6108 10.3708C23.8112 9.2005 23.543 8.02229 22.856 7.05323C22.1689 6.0838 21.1452 5.44026 19.973 5.24008C17.5536 4.82681 15.249 6.45696 14.8355 8.87318C14.586 10.3307 15.0819 11.7464 16.0454 12.7312C15.7897 12.8512 15.5495 12.9908 15.3261 13.1484C14.8958 12.2502 14.0635 11.5648 13.0261 11.3789C12.2014 11.2314 11.3691 11.4162 10.6821 11.9C9.97998 12.3946 9.51418 13.1387 9.37146 13.9953C9.27967 14.5451 9.33238 15.0872 9.50163 15.5814C9.45681 15.6029 9.41342 15.6269 9.37254 15.6556C9.17245 15.7952 9.03619 16.009 8.99423 16.2497L7.70441 23.6455C7.47241 24.9777 8.33122 26.2494 9.61889 26.4797L11.1647 26.7565C11.3042 26.7816 11.4426 26.7938 11.5796 26.7938C11.6825 26.7938 11.7836 26.7848 11.8837 26.7716L11.5975 31.1592L9.36967 35.7485C9.15847 36.1843 9.05125 36.6502 9.05125 37.1326C9.05125 37.6028 9.15882 38.0594 9.35246 38.4734H8.28675C8.11176 38.4734 7.94036 38.5235 7.79298 38.6174L0.424472 43.3102C-0.00295809 43.5823 -0.128462 44.1492 0.144061 44.5761C0.319049 44.8501 0.615955 45.0001 0.918957 45.0001C1.08785 45.0001 1.25854 44.9536 1.41165 44.8561L8.55425 40.307H12.0497C12.1096 40.3106 12.1691 40.3123 12.2286 40.3123C12.2781 40.3123 12.3273 40.3095 12.3764 40.307H22.1643C22.3995 40.307 22.6257 40.2167 22.7964 40.0549L28.9042 34.2594H31.311H31.3164H31.3196H36.4724C36.755 34.2594 37.0221 34.1291 37.196 33.9063L38.7627 31.9005C39.0746 31.5009 39.0033 30.925 38.6035 30.6134ZM15.6373 27.241C15.282 27.1802 14.8886 27.154 14.5655 26.9843C13.9943 26.6838 13.7046 26.0471 13.8104 25.42C13.8398 25.2463 13.8699 25.0723 13.8996 24.8986C16.5625 24.775 18.4203 24.0273 19.6649 23.2294L19.4498 24.4871C19.3809 24.89 19.5875 25.29 19.9561 25.4676L23.2239 27.0401L27.0209 31.8271C27.482 32.4087 27.3838 33.2563 26.8014 33.7169C26.2195 34.1774 25.3707 34.0789 24.9096 33.4977L21.6278 29.3607C21.5418 29.2519 21.4317 29.1641 21.3069 29.104L18.5411 27.7729C18.4637 27.7356 18.3816 27.7095 18.2973 27.6951L15.6373 27.241ZM28.4599 30.6886L24.5313 25.7355C24.4667 25.6546 24.3896 25.5858 24.3036 25.5314C24.2734 25.5124 24.2415 25.4945 24.2085 25.4787L21.3761 24.1154L21.806 21.6028H26.9298L30.0925 32.4255H29.138C29.0931 31.8124 28.8705 31.2058 28.4599 30.6886ZM24.6234 18.4765H26.6985C26.7003 18.4765 26.7021 18.4768 26.7039 18.4768C26.705 18.4768 26.7061 18.4765 26.7071 18.4765H27.9145C28.2716 18.4765 28.5617 18.7665 28.5617 19.1229C28.5617 19.4792 28.2716 19.7693 27.9145 19.7693H27.6355C27.6344 19.7693 27.6334 19.7693 27.6326 19.7693H21.3725L19.5165 18.1717C19.1321 17.8415 18.5526 17.8845 18.2216 18.268C17.8907 18.6516 17.9337 19.2303 18.3177 19.5608L19.7696 20.8103C19.0431 21.5638 17.3854 22.805 14.2173 23.0428L14.5548 21.0714L15.1923 17.3477C15.1927 17.3452 15.1927 17.3427 15.193 17.3402L15.382 16.2357C15.5653 15.166 16.4789 14.0426 18.4902 14.0426C18.5365 14.0426 18.5831 14.0433 18.6308 14.0444C18.6383 14.0448 18.6462 14.0448 18.6537 14.0448C19.2834 14.0448 19.8492 14.2618 20.2462 14.6554C20.258 14.6672 20.2702 14.6786 20.2824 14.6897L23.9894 18.2229C24.1605 18.3859 24.3875 18.4765 24.6234 18.4765ZM16.6453 9.18188C16.863 7.91056 17.9713 7.00989 19.2217 7.00989C19.3677 7.00989 19.5154 7.02207 19.6639 7.0475C20.3523 7.16496 20.9537 7.54313 21.3574 8.11254C21.7612 8.68195 21.919 9.37455 21.801 10.0621C21.5837 11.3335 20.475 12.2345 19.2246 12.2341C19.0786 12.2341 18.9309 12.2219 18.7825 12.1965C17.361 11.9541 16.4022 10.6015 16.6453 9.18188ZM11.1823 14.2969C11.244 13.9273 11.4419 13.6082 11.7399 13.3984C11.9594 13.244 12.2143 13.1634 12.4754 13.1634C12.5507 13.1634 12.6263 13.1702 12.702 13.1838C13.4285 13.3138 13.9169 14.0333 13.791 14.7871C13.7293 15.1567 13.531 15.4758 13.233 15.6857C12.9505 15.8848 12.6091 15.9607 12.2713 15.9005C11.5448 15.7702 11.0561 15.0507 11.1823 14.2969ZM11.4889 24.952L9.94304 24.6748C9.6465 24.6218 9.45358 24.3009 9.5131 23.9596L10.6444 17.4719L13.2287 17.935L12.7931 20.4812L12.0988 24.5351C12.0078 24.8166 11.746 24.9978 11.4889 24.952ZM11.6463 38.3445C11.178 38.1178 10.8872 37.6533 10.8872 37.1323C10.8872 36.9288 10.9327 36.7319 11.022 36.5478L13.3277 31.7977C13.3797 31.6914 13.4102 31.5757 13.4177 31.4575L13.6074 28.5521C14.2995 28.9482 15.1246 29.0134 15.8984 29.1459C16.044 29.1706 16.1896 29.1957 16.3351 29.2204L16.1286 32.1935L13.4457 37.721C13.2295 38.1661 12.7977 38.4376 12.3359 38.4734H12.1275C11.9647 38.4605 11.8019 38.4197 11.6463 38.3445ZM21.7974 38.4734H15.1206L17.858 32.8338C17.877 32.7947 17.8928 32.755 17.9061 32.7142C17.9283 32.645 17.9427 32.572 17.948 32.4964L18.1478 29.6189L20.3197 30.6643L23.4706 34.6362C23.8327 35.0928 24.2964 35.4226 24.8041 35.6203L21.7974 38.4734Z" fill="#141816"/>
<path d="M35.648 11.8981H40.3447C42.2882 11.8981 43.8696 10.3188 43.8696 8.37742C43.8696 6.43642 42.2882 4.85712 40.3447 4.85712C39.8753 4.85712 39.4134 4.95095 38.9857 5.12929C38.2004 4.10937 36.9744 3.48804 35.648 3.48804C33.3262 3.48804 31.4375 5.37424 31.4375 7.69306C31.4375 8.81611 31.8753 9.8722 32.6707 10.6665C33.466 11.4608 34.5231 11.8981 35.648 11.8981ZM35.648 5.3216C36.5939 5.3216 37.4491 5.8817 37.8267 6.74906C37.9422 7.01442 38.1763 7.20996 38.4585 7.27621C38.7404 7.3421 39.0373 7.27155 39.2593 7.08533C39.5669 6.82713 39.942 6.69068 40.3447 6.69068C41.2759 6.69068 42.0336 7.44739 42.0336 8.37742C42.0336 9.30781 41.2759 10.0645 40.3447 10.0645H35.648C35.0136 10.0645 34.4173 9.81777 33.9687 9.36976C33.5201 8.92212 33.2734 8.32657 33.2734 7.69306C33.2734 6.38521 34.3388 5.3216 35.648 5.3216Z" fill="#141816"/>
<path d="M5.55161 9.58598C7.4001 9.58598 8.90399 8.08403 8.90399 6.23794C8.90399 4.39184 7.4001 2.88989 5.55161 2.88989C4.65623 2.88989 3.81427 3.23798 3.18138 3.87042C2.54812 4.50286 2.19922 5.34372 2.19922 6.23794C2.19922 8.08403 3.70347 9.58598 5.55161 9.58598ZM4.47944 5.16716C4.76595 4.88103 5.14677 4.72346 5.55161 4.72346C6.38782 4.72346 7.06805 5.40281 7.06805 6.23794C7.06805 7.07307 6.38782 7.75242 5.55161 7.75242C4.71575 7.75242 4.03516 7.07307 4.03516 6.23794C4.03516 5.83326 4.19294 5.45294 4.47944 5.16716Z" fill="#141816"/>
<path d="M0.458951 4.38159L0.889609 4.62976C1.03412 4.7132 1.19225 4.75295 1.34788 4.75295C1.66522 4.75295 1.9736 4.58858 2.14357 4.29421C2.39709 3.85587 2.24684 3.29506 1.80758 3.04187L1.37692 2.79369C0.938017 2.5405 0.376477 2.69055 0.12296 3.12925C-0.1302 3.56758 0.0200463 4.1284 0.458951 4.38159Z" fill="#141816"/>
<path d="M10.6398 8.13537L10.2091 7.8872C9.77021 7.63401 9.20867 7.78406 8.95515 8.22275C8.70163 8.66109 8.85224 9.2219 9.29114 9.47509L9.7218 9.72327C9.86631 9.80671 10.0241 9.84646 10.1801 9.84646C10.4971 9.84646 10.8058 9.68208 10.9758 9.38771C11.2293 8.94938 11.0787 8.38856 10.6398 8.13537Z" fill="#141816"/>
<path d="M0.919013 9.84646C1.07464 9.84646 1.23277 9.80671 1.37728 9.72327L1.80758 9.47509C2.24684 9.2219 2.39709 8.66145 2.14357 8.22275C1.89005 7.78406 1.32887 7.63401 0.889609 7.8872L0.458951 8.13537C0.0200463 8.38856 -0.1302 8.94938 0.12296 9.38771C0.293286 9.68208 0.601667 9.84646 0.919013 9.84646Z" fill="#141816"/>
<path d="M9.7512 4.75288C9.90683 4.75288 10.0646 4.71312 10.2091 4.63004L10.6398 4.38151C11.079 4.12832 11.2293 3.56786 10.9758 3.12917C10.7222 2.69083 10.1607 2.54042 9.7218 2.79361L9.29114 3.04179C8.85224 3.29498 8.70163 3.85579 8.95515 4.29449C9.12548 4.5885 9.43386 4.75288 9.7512 4.75288Z" fill="#141816"/>
<path d="M5.55078 2.35534C6.05782 2.35534 6.46875 1.94494 6.46875 1.43856V0.916782C6.46875 0.410403 6.05782 0 5.55078 0C5.04375 0 4.63281 0.410403 4.63281 0.916782V1.43856C4.63281 1.94494 5.04375 2.35534 5.55078 2.35534Z" fill="#141816"/>
<path d="M4.63281 11.1228V11.6446C4.63281 12.151 5.04375 12.5614 5.55078 12.5614C6.05782 12.5614 6.46875 12.151 6.46875 11.6446V11.1228C6.46875 10.6165 6.05782 10.2061 5.55078 10.2061C5.04375 10.2061 4.63281 10.6168 4.63281 11.1228Z" fill="#141816"/>
<path d="M40.9637 28.1323C40.8156 27.772 40.4391 27.5407 40.0504 27.569C39.6689 27.5966 39.3393 27.8644 39.2339 28.2311C39.1281 28.5989 39.2701 29.005 39.581 29.2281C39.8876 29.4477 40.3114 29.4538 40.6248 29.2453C40.9852 29.0065 41.1301 28.5309 40.9637 28.1323Z" fill="#141816"/>
</svg>
